<svg width="30" height="30" viewBox="0 0 30 30" fill="none" xmlns="http://www.w3.org/2000/svg">
<mask id="mask0" mask-type="alpha" maskUnits="userSpaceOnUse" x="6" y="6" width="18" height="18">
<path fill-rule="evenodd" clip-rule="evenodd" d="M23.54 8.23L22.15 6.55C21.88 6.21 21.47 6 21 6H9C8.53 6 8.12 6.21 7.84 6.55L6.46 8.23C6.17 8.57 6 9.02 6 9.5V22C6 23.1 6.9 24 8 24H22C23.1 24 24 23.1 24 22V9.5C24 9.02 23.83 8.57 23.54 8.23ZM15 20.5L9.5 15H13V13H17V15H20.5L15 20.5ZM8.12 8L8.93 7H20.93L21.87 8H8.12Z" fill="white"/>
</mask>
<g mask="url(#mask0)">
<rect x="2" y="2" width="26" height="26" fill="#D8D8D8"/>
</g>
</svg>
