<svg width="30" height="30" viewBox="0 0 30 30" fill="none" xmlns="http://www.w3.org/2000/svg">
<mask id="mask0" mask-type="alpha" maskUnits="userSpaceOnUse" x="6" y="6" width="18" height="18">
<path fill-rule="evenodd" clip-rule="evenodd" d="M22 6H7.99C6.88 6 6.01 6.89 6.01 8L6 22C6 23.1 6.88 24 7.99 24H22C23.1 24 24 23.1 24 22V8C24 6.89 23.1 6 22 6ZM22 18H18C18 19.66 16.65 21 15 21C13.35 21 12 19.66 12 18H7.99V8H22V18Z" fill="white"/>
</mask>
<g mask="url(#mask0)">
<rect x="2" y="2" width="26" height="26" fill="#D8D8D8"/>
</g>
</svg>
