<svg width="30" height="30" viewBox="0 0 30 30" fill="none" xmlns="http://www.w3.org/2000/svg">
<mask id="mask0" mask-type="alpha" maskUnits="userSpaceOnUse" x="6" y="7" width="19" height="16">
<path fill-rule="evenodd" clip-rule="evenodd" d="M6 20H8V20.5H7V21.5H8V22H6V23H9V19H6V20ZM7 11H8V7H6V8H7V11ZM6 14H7.8L6 16.1V17H9V16H7.2L9 13.9V13H6V14ZM11 8V10H25V8H11ZM11 22H25V20H11V22ZM11 16H25V14H11V16Z" fill="white"/>
</mask>
<g mask="url(#mask0)">
<rect x="2" y="2" width="26" height="26" fill="#D8D8D8"/>
</g>
</svg>
