<svg width="30" height="30" viewBox="0 0 30 30" fill="none" xmlns="http://www.w3.org/2000/svg">
<mask id="mask0" mask-type="alpha" maskUnits="userSpaceOnUse" x="7" y="5" width="16" height="21">
<path fill-rule="evenodd" clip-rule="evenodd" d="M21 12H20V10C20 7.24 17.76 5 15 5C12.24 5 10 7.24 10 10V12H9C7.9 12 7 12.9 7 14V24C7 25.1 7.9 26 9 26H21C22.1 26 23 25.1 23 24V14C23 12.9 22.1 12 21 12ZM15 21C13.9 21 13 20.1 13 19C13 17.9 13.9 17 15 17C16.1 17 17 17.9 17 19C17 20.1 16.1 21 15 21ZM18.1 12H11.9V10C11.9 8.29 13.29 6.9 15 6.9C16.71 6.9 18.1 8.29 18.1 10V12Z" fill="white"/>
</mask>
<g mask="url(#mask0)">
<rect x="2" y="2" width="26" height="26" fill="#D8D8D8"/>
</g>
</svg>
