<svg width="28" height="28" viewBox="0 0 28 28" fill="none" xmlns="http://www.w3.org/2000/svg">
<mask id="mask0" mask-type="alpha" maskUnits="userSpaceOnUse" x="9" y="5" width="10" height="18">
<path fill-rule="evenodd" clip-rule="evenodd" d="M14.4482 12.9733C12.3295 12.4227 11.6482 11.8533 11.6482 10.9667C11.6482 9.94933 12.5908 9.24 14.1682 9.24C15.8295 9.24 16.4455 10.0333 16.5015 11.2H18.5642C18.4988 9.59466 17.5188 8.12 15.5682 7.644V5.6H12.7682V7.616C10.9575 8.008 9.5015 9.184 9.5015 10.9853C9.5015 13.1413 11.2842 14.2147 13.8882 14.84C16.2215 15.4 16.6882 16.2213 16.6882 17.0893C16.6882 17.7333 16.2308 18.76 14.1682 18.76C12.2455 18.76 11.4895 17.9013 11.3868 16.8H9.3335C9.4455 18.844 10.9762 19.992 12.7682 20.3747V22.4H15.5682V20.3933C17.3882 20.048 18.8348 18.9933 18.8348 17.08C18.8348 14.4293 16.5668 13.524 14.4482 12.9733V12.9733Z" fill="white"/>
</mask>
<g mask="url(#mask0)">
<rect x="1.8667" y="1.86667" width="24.2667" height="24.2667" fill="#D8D8D8"/>
</g>
</svg>
