<svg width="30" height="30" viewBox="0 0 30 30" fill="none" xmlns="http://www.w3.org/2000/svg">
<mask id="mask0" mask-type="alpha" maskUnits="userSpaceOnUse" x="7" y="5" width="16" height="20">
<path fill-rule="evenodd" clip-rule="evenodd" d="M15 24.5C15.14 24.5 15.27 24.49 15.4 24.46C16.05 24.32 16.58 23.88 16.84 23.28C16.94 23.04 16.99 22.78 16.99 22.5H12.99C13 23.6 13.89 24.5 15 24.5ZM21 13.5C21 10.43 19.36 7.86 16.5 7.18V6.5C16.5 5.67 15.83 5 15 5C14.17 5 13.5 5.67 13.5 6.5V7.18C10.63 7.86 9 10.42 9 13.5V18.5L7 20.5V21.5H23V20.5L21 18.5V13.5Z" fill="white"/>
</mask>
<g mask="url(#mask0)">
<rect x="2" y="2" width="26" height="26" fill="#D8D8D8"/>
</g>
</svg>
