<svg width="30" height="30" viewBox="0 0 30 30" fill="none" xmlns="http://www.w3.org/2000/svg">
<mask id="mask0" mask-type="alpha" maskUnits="userSpaceOnUse" x="6" y="6" width="18" height="18">
<path fill-rule="evenodd" clip-rule="evenodd" d="M9.62 13.79C11.06 16.62 13.38 18.93 16.21 20.38L18.41 18.18C18.68 17.91 19.08 17.82 19.43 17.94C20.55 18.31 21.76 18.51 23 18.51C23.55 18.51 24 18.96 24 19.51V23C24 23.55 23.55 24 23 24C13.61 24 6 16.39 6 7C6 6.45 6.45 6 7 6H10.5C11.05 6 11.5 6.45 11.5 7C11.5 8.25 11.7 9.45 12.07 10.57C12.18 10.92 12.1 11.31 11.82 11.59L9.62 13.79Z" fill="white"/>
</mask>
<g mask="url(#mask0)">
<rect x="2" y="2" width="26" height="26" fill="#D8D8D8"/>
</g>
</svg>
