<svg width="28" height="28" viewBox="0 0 28 28" fill="none" xmlns="http://www.w3.org/2000/svg">
<mask id="mask0" mask-type="alpha" maskUnits="userSpaceOnUse" x="5" y="5" width="17" height="17">
<path fill-rule="evenodd" clip-rule="evenodd" d="M17.2663 15.8667H16.5289L16.2676 15.6147C17.1823 14.5507 17.7329 13.1693 17.7329 11.6667C17.7329 8.31601 15.0169 5.60001 11.6663 5.60001C8.31561 5.60001 5.59961 8.31601 5.59961 11.6667C5.59961 15.0173 8.31561 17.7333 11.6663 17.7333C13.1689 17.7333 14.5503 17.1827 15.6143 16.268L15.8663 16.5293V17.2667L20.5329 21.924L21.9236 20.5333L17.2663 15.8667ZM11.6663 15.8667C9.34228 15.8667 7.46628 13.9907 7.46628 11.6667C7.46628 9.34267 9.34228 7.46667 11.6663 7.46667C13.9903 7.46667 15.8663 9.34267 15.8663 11.6667C15.8663 13.9907 13.9903 15.8667 11.6663 15.8667Z" fill="white"/>
</mask>
<g mask="url(#mask0)">
<rect x="1.86621" y="1.86667" width="24.2667" height="24.2667" fill="#D8D8D8"/>
</g>
</svg>
