<svg width="30" height="30" viewBox="0 0 30 30" fill="none" xmlns="http://www.w3.org/2000/svg">
<mask id="mask0" mask-type="alpha" maskUnits="userSpaceOnUse" x="4" y="6" width="22" height="19">
<path fill-rule="evenodd" clip-rule="evenodd" d="M20.21 12.98L15.83 6.42C15.64 6.14 15.32 6 15 6C14.68 6 14.36 6.14 14.17 6.43L9.79 12.98H5C4.45 12.98 4 13.43 4 13.98C4 14.07 4.01 14.16 4.04 14.25L6.58 23.52C6.81 24.36 7.58 24.98 8.5 24.98H21.5C22.42 24.98 23.19 24.36 23.43 23.52L25.97 14.25L26 13.98C26 13.43 25.55 12.98 25 12.98H20.21ZM12 12.98L15 8.58L18 12.98H12ZM15 20.98C13.9 20.98 13 20.08 13 18.98C13 17.88 13.9 16.98 15 16.98C16.1 16.98 17 17.88 17 18.98C17 20.08 16.1 20.98 15 20.98Z" fill="white"/>
</mask>
<g mask="url(#mask0)">
<rect x="2" y="2" width="26" height="26" fill="#5553CE"/>
</g>
</svg>
