<svg width="30" height="30" viewBox="0 0 30 30" fill="none" xmlns="http://www.w3.org/2000/svg">
<mask id="mask0" mask-type="alpha" maskUnits="userSpaceOnUse" x="4" y="9" width="22" height="12">
<path fill-rule="evenodd" clip-rule="evenodd" d="M26 11C26 12.1 25.1 13 24 13C23.82 13 23.65 12.98 23.49 12.93L19.93 16.48C19.98 16.64 20 16.82 20 17C20 18.1 19.1 19 18 19C16.9 19 16 18.1 16 17C16 16.82 16.02 16.64 16.07 16.48L13.52 13.93C13.36 13.98 13.18 14 13 14C12.82 14 12.64 13.98 12.48 13.93L7.93 18.49C7.98 18.65 8 18.82 8 19C8 20.1 7.1 21 6 21C4.9 21 4 20.1 4 19C4 17.9 4.9 17 6 17C6.18 17 6.35 17.02 6.51 17.07L11.07 12.52C11.02 12.36 11 12.18 11 12C11 10.9 11.9 10 13 10C14.1 10 15 10.9 15 12C15 12.18 14.98 12.36 14.93 12.52L17.48 15.07C17.64 15.02 17.82 15 18 15C18.18 15 18.36 15.02 18.52 15.07L22.07 11.51C22.02 11.35 22 11.18 22 11C22 9.9 22.9 9 24 9C25.1 9 26 9.9 26 11Z" fill="white"/>
</mask>
<g mask="url(#mask0)">
<rect x="2" y="2" width="26" height="26" fill="#1875F0"/>
</g>
</svg>
