<svg width="28" height="28" viewBox="0 0 28 28" fill="none" xmlns="http://www.w3.org/2000/svg">
<mask id="mask0" mask-type="alpha" maskUnits="userSpaceOnUse" x="5" y="4" width="18" height="20">
<path fill-rule="evenodd" clip-rule="evenodd" d="M20.5334 6.53335H19.6001V4.66669H17.7334V6.53335H10.2668V4.66669H8.4001V6.53335H7.46676C6.43076 6.53335 5.60943 7.37335 5.60943 8.40002L5.6001 21.4667C5.6001 22.4934 6.43076 23.3334 7.46676 23.3334H20.5334C21.5601 23.3334 22.4001 22.4934 22.4001 21.4667V8.40002C22.4001 7.37335 21.5601 6.53335 20.5334 6.53335V6.53335ZM20.5334 21.4667H7.46676V11.2H20.5334V21.4667V21.4667ZM9.33343 13.0667H14.0001V17.7334H9.33343V13.0667Z" fill="white"/>
</mask>
<g mask="url(#mask0)">
<rect x="1.8667" y="1.86664" width="24.2667" height="24.2667" fill="#D8D8D8"/>
</g>
</svg>
